<svg aria-hidden="true" style="position: absolute; width: 0; height: 0; overflow: hidden;" version="1.1" xmlns="http://www.w3.org/2000/svg" xmlns:xlink="http://www.w3.org/1999/xlink">
<defs>
<symbol id="icon-box-checked" viewBox="0 0 32 32">
<path stroke-linejoin="miter" stroke-linecap="butt" stroke-miterlimit="4" stroke-width="2.6667" d="M16 4c6.627 0 12 5.373 12 12s-5.373 12-12 12c-6.627 0-12-5.373-12-12s5.373-12 12-12z"></path>
<path d="M16 9.333c3.682 0 6.667 2.985 6.667 6.667s-2.985 6.667-6.667 6.667c-3.682 0-6.667-2.985-6.667-6.667s2.985-6.667 6.667-6.667z"></path>
</symbol>
<symbol id="icon-box" viewBox="0 0 32 32">
<path stroke-linejoin="miter" stroke-linecap="butt" stroke-miterlimit="4" stroke-width="2.6667" d="M16 4c6.627 0 12 5.373 12 12s-5.373 12-12 12c-6.627 0-12-5.373-12-12s5.373-12 12-12z"></path>
</symbol>
<symbol id="icon-eye-off" viewBox="0 0 32 32">
<path stroke-linejoin="round" stroke-linecap="round" stroke-miterlimit="4" stroke-width="3.2" d="M23.92 23.92c-2.175 1.672-4.923 2.696-7.908 2.747l-0.012 0c-9.333 0-14.667-10.667-14.667-10.667 1.713-3.152 3.978-5.791 6.689-7.877l0.058-0.043M13.2 5.653c0.833-0.203 1.788-0.32 2.771-0.32 0.010 0 0.020 0 0.030 0h-0.002c9.333 0 14.667 10.667 14.667 10.667-0.871 1.615-1.826 3.008-2.91 4.289l0.030-0.036M18.827 18.827c-0.731 0.774-1.764 1.256-2.91 1.256-2.209 0-4-1.791-4-4 0-1.146 0.482-2.179 1.254-2.909l0.002-0.002M1.333 1.333l29.334 29.334"></path>
</symbol>
<symbol id="icon-eye" viewBox="0 0 32 32">
<path stroke-linejoin="round" stroke-linecap="round" stroke-miterlimit="4" stroke-width="3.2" d="M1.333 16s5.334-10.667 14.667-10.667 14.667 10.667 14.667 10.667-5.334 10.667-14.667 10.667-14.667-10.667-14.667-10.667z"></path>
<path stroke-linejoin="round" stroke-linecap="round" stroke-miterlimit="4" stroke-width="3.2" d="M16 20c2.209 0 4-1.791 4-4s-1.791-4-4-4v0c-2.209 0-4 1.791-4 4s1.791 4 4 4v0z"></path>
</symbol>
<symbol id="icon-pen" viewBox="0 0 32 32">
<path stroke-linejoin="round" stroke-linecap="round" stroke-miterlimit="4" stroke-width="2.88" d="M3.835 24.154c0.061-0.55 0.091-0.827 0.176-1.085 0.072-0.227 0.176-0.445 0.309-0.646 0.15-0.226 0.346-0.422 0.738-0.814l17.61-17.608c0.686-0.704 1.643-1.141 2.702-1.141 2.083 0 3.771 1.688 3.771 3.771 0 1.059-0.437 2.016-1.14 2.701l-0.001 0.001-17.608 17.611c-0.392 0.392-0.589 0.587-0.816 0.736-0.186 0.125-0.4 0.231-0.628 0.307l-0.019 0.005c-0.256 0.083-0.533 0.114-1.083 0.176l-4.512 0.501 0.501-4.512z"></path>
</symbol>
<symbol id="icon-plus" viewBox="0 0 32 32">
<path stroke-linejoin="round" stroke-linecap="round" stroke-miterlimit="4" stroke-width="2.4" d="M16 6.667v18.666M6.667 16h18.666"></path>
</symbol>
<symbol id="icon-success" viewBox="0 0 32 32">
<path d="M16 29.334c-0.049 0.001-0.106 0.001-0.163 0.001-7.364 0-13.334-5.97-13.334-13.334s5.97-13.334 13.334-13.334c0.057 0 0.115 0 0.172 0.001l-0.009-0c7.294 0.092 13.171 6.026 13.171 13.333s-5.877 13.241-13.162 13.333l-0.009 0zM14.46 21.98l9.426-9.428-1.886-1.886-7.54 7.544-3.776-3.772-1.884 1.884 5.656 5.658z"></path>
</symbol>
<symbol id="icon-switch-one" viewBox="0 0 32 32">
<path stroke-linejoin="round" stroke-linecap="round" stroke-miterlimit="4" stroke-width="2.4" d="M5.333 16h21.334M26.667 16l-5.334-5.333M26.667 16l-5.334 5.333"></path>
</symbol>
<symbol id="icon-switch-two" viewBox="0 0 32 32">
<path stroke-linejoin="round" stroke-linecap="round" stroke-miterlimit="4" stroke-width="2" d="M26.667 22.667h-21.333M5.333 22.667l5.333-5.333M5.333 22.667l5.333 5.333M5.333 9.333h21.333M26.667 9.333l-5.333-5.333M26.667 9.333l-5.333 5.333"></path>
</symbol>
<symbol id="icon-trash" viewBox="0 0 32 32">
<path stroke-linejoin="round" stroke-linecap="round" stroke-miterlimit="4" stroke-width="2.88" d="M12 4h8M13.333 14v6.667M18.667 14v6.667M4 8h24M25.333 8l-0.934 14.026c-0.141 2.104-0.211 3.157-0.666 3.955-0.405 0.703-0.997 1.258-1.708 1.609l-0.023 0.010c-0.826 0.4-1.88 0.4-3.989 0.4h-4.026c-2.109 0-3.163 0-3.989-0.4-0.734-0.361-1.326-0.917-1.721-1.6l-0.010-0.019c-0.454-0.8-0.525-1.851-0.666-3.955l-0.934-14.026"></path>
</symbol>
<symbol id="icon-united-kingdom" viewBox="0 0 32 32">
<path fill="#f0f0f0" style="fill: var(--color1, #f0f0f0)" d="M16 32c8.837 0 16-7.163 16-16s-7.163-16-16-16-16 7.163-16 16 7.163 16 16 16z"></path>
<path fill="#0052b4" style="fill: var(--color2, #0052b4)" d="M3.308 6.259c-1.223 1.576-2.171 3.435-2.731 5.455l-0.027 0.112h8.324l-5.566-5.566zM31.449 11.826c-0.586-2.132-1.533-3.991-2.783-5.603l0.027 0.036-5.568 5.567h8.324zM0.551 20.174c0.586 2.132 1.534 3.991 2.784 5.603l-0.027-0.036 5.567-5.567h-8.325zM25.741 3.308c-1.576-1.223-3.435-2.171-5.455-2.731l-0.112-0.027v8.324l5.567-5.567zM6.259 28.692c1.576 1.223 3.435 2.171 5.455 2.73l0.112 0.026v-8.324l-5.566 5.567zM11.826 0.551c-2.132 0.587-3.99 1.534-5.602 2.784l0.036-0.027 5.567 5.567v-8.325zM20.174 31.449c2.132-0.587 3.991-1.534 5.603-2.784l-0.036 0.027-5.567-5.567v8.324zM23.125 20.174l5.568 5.567c1.223-1.576 2.17-3.435 2.73-5.455l0.026-0.112h-8.324z"></path>
<path fill="#d80027" style="fill: var(--color3, #d80027)" d="M31.865 13.913h-13.778v-13.778c-0.627-0.086-1.351-0.135-2.087-0.135s-1.46 0.049-2.17 0.144l0.083-0.009v13.778h-13.778c-0.086 0.627-0.135 1.351-0.135 2.087s0.049 1.46 0.144 2.17l-0.009-0.083h13.778v13.778c0.627 0.086 1.351 0.135 2.087 0.135s1.46-0.049 2.17-0.144l-0.083 0.009v-13.778h13.778c0.086-0.627 0.135-1.351 0.135-2.087s-0.049-1.46-0.144-2.17l0.009 0.083z"></path>
<path fill="#d80027" style="fill: var(--color3, #d80027)" d="M20.174 20.174l7.14 7.14c0.328-0.329 0.641-0.672 0.94-1.027l-6.113-6.113h-1.967zM11.826 20.174l-7.14 7.14c0.329 0.328 0.672 0.641 1.027 0.94l6.113-6.113v-1.967zM11.826 11.826l-7.14-7.14c-0.328 0.329-0.641 0.672-0.94 1.027l6.113 6.113h1.967zM20.174 11.826l7.14-7.14c-0.321-0.32-0.656-0.628-1.003-0.92l-0.024-0.020-6.113 6.113v1.967z"></path>
</symbol>
<symbol id="icon-user" viewBox="0 0 32 32">
<path d="M16 5.333c2.946 0 5.333 2.388 5.333 5.333s-2.388 5.333-5.333 5.333v0c-2.946 0-5.333-2.388-5.333-5.333s2.388-5.333 5.333-5.333v0zM16 26.667s10.667 0 10.667-2.667c0-3.2-5.2-6.667-10.667-6.667s-10.667 3.467-10.667 6.667c0 2.667 10.667 2.667 10.667 2.667z"></path>
</symbol>
<symbol id="icon-warning" viewBox="0 0 32 32">
<path d="M16 29.334c-0.049 0.001-0.106 0.001-0.163 0.001-7.364 0-13.334-5.97-13.334-13.334s5.97-13.334 13.334-13.334c0.057 0 0.115 0 0.172 0.001l-0.009-0c7.294 0.092 13.171 6.026 13.171 13.333s-5.877 13.241-13.162 13.333l-0.009 0zM14.666 20v2.666h2.668v-2.666h-2.668zM14.666 9.334v8h2.668v-8h-2.668z"></path>
</symbol>
<symbol id="icon-ukraine" viewBox="0 0 32 32">
<path fill="#ffda44" style="fill: var(--color4, #ffda44)" d="M16 32c8.837 0 16-7.163 16-16s-7.163-16-16-16-16 7.163-16 16 7.163 16 16 16z"></path>
<path fill="#338af3" style="fill: var(--color5, #338af3)" d="M0 16c0-8.837 7.163-16 16-16s16 7.163 16 16z"></path>
</symbol>
</defs>
</svg>
