<svg xmlns="http://www.w3.org/2000/svg" width="36" height="36" fill="none"><circle cx="18" cy="18" r="18" fill="#85AA9F"/><path fill="#FCFCFC" fill-rule="evenodd" d="M17.95 16.667c5.284-3.985 5.517-6.4 0-10.667-5.622 4.358-4.897 6.668 0 10.667Zm-1.283 1.383c-3.985-5.283-6.4-5.516-10.667 0 4.358 5.622 6.668 4.898 10.667 0Zm13.333 0c-3.985-5.283-6.4-5.516-10.667 0 4.358 5.622 6.668 4.898 10.667 0ZM17.95 30c5.284-3.985 5.517-6.4 0-10.667-5.622 4.358-4.897 6.668 0 10.667Z" clip-rule="evenodd"/></svg>